<?xml version="1.0" encoding="utf-8" standalone="no"?>
<!DOCTYPE svg PUBLIC "-//W3C//DTD SVG 1.1//EN"
  "http://www.w3.org/Graphics/SVG/1.1/DTD/svg11.dtd">
<svg xmlns:xlink="http://www.w3.org/1999/xlink" width="576pt" height="576pt" viewBox="0 0 576 576" xmlns="http://www.w3.org/2000/svg" version="1.1">
 <metadata>
  <rdf:RDF xmlns:dc="http://purl.org/dc/elements/1.1/" xmlns:cc="http://creativecommons.org/ns#" xmlns:rdf="http://www.w3.org/1999/02/22-rdf-syntax-ns#">
   <cc:Work>
    <dc:type rdf:resource="http://purl.org/dc/dcmitype/StillImage"/>
    <dc:date>2025-05-29T12:07:28.508643</dc:date>
    <dc:format>image/svg+xml</dc:format>
    <dc:creator>
     <cc:Agent>
      <dc:title>Matplotlib v3.10.3, https://matplotlib.org/</dc:title>
     </cc:Agent>
    </dc:creator>
   </cc:Work>
  </rdf:RDF>
 </metadata>
 <defs>
  <style type="text/css">*{stroke-linejoin: round; stroke-linecap: butt}</style>
 </defs>
 <g id="figure_1">
  <g id="patch_1">
   <path d="M 0 576 
L 576 576 
L 576 0 
L 0 0 
z
" style="fill: #ffffff"/>
  </g>
  <g id="patch_2">
   <path d="M 10.8 565.2 
L 565.2 565.2 
L 565.2 10.8 
L 10.8 10.8 
z
" style="fill: #ffffff"/>
  </g>
  <g id="axes_1">
   <g id="line2d_1">
    <path d="M 433.21421 391.436662 
L 433.192363 386.395941 
L 432.955759 381.356824 
L 432.504369 376.327194 
L 431.838502 371.314943 
L 430.958805 366.32797 
L 429.86627 361.374159 
L 428.562227 356.461372 
L 427.048352 351.597433 
L 425.326661 346.790117 
L 423.399515 342.047134 
L 421.269609 337.376118 
L 418.939982 332.784613 
L 416.414002 328.280059 
L 413.695371 323.869779 
L 410.788119 319.560965 
L 407.696594 315.360666 
L 404.425465 311.275776 
L 400.979708 307.313016 
L 397.364604 303.478928 
L 393.585728 299.779857 
L 389.648943 296.221941 
L 385.560393 292.811101 
L 381.326486 289.553026 
L 376.953894 286.453161 
L 372.449532 283.516701 
L 367.820556 280.748577 
L 363.074343 278.153446 
L 358.218484 275.735683 
L 353.260768 273.499369 
L 348.20917 271.448287 
L 343.071836 269.585913 
L 337.85707 267.915403 
L 332.573316 266.439596 
L 327.229146 265.161001 
L 321.833244 264.081794 
L 316.394388 263.203812 
L 310.921437 262.528552 
L 305.423312 262.057165 
L 299.90898 261.790456 
L 295.491892 261.724774 
L 295.491892 261.724774 
" clip-path="url(#pbba4876274)" style="fill: none; stroke: #0000ff; stroke-width: 2; stroke-linecap: square"/>
   </g>
   <g id="line2d_2">
    <path d="M 472.563444 391.436662 
L 472.535355 386.395941 
L 472.23115 381.356824 
L 471.650791 376.327194 
L 470.794676 371.314943 
L 469.663638 366.32797 
L 468.258949 361.374159 
L 466.582322 356.461372 
L 464.635911 351.597433 
L 462.42231 346.790117 
L 459.94455 342.047134 
L 457.2061 337.376118 
L 454.210864 332.784613 
L 450.963176 328.280059 
L 447.467794 323.869779 
L 443.729898 319.560965 
L 439.755081 315.360666 
L 435.549343 311.275776 
L 431.119084 307.313016 
L 426.471093 303.478928 
L 421.612538 299.779857 
L 416.550958 296.221941 
L 411.29425 292.811101 
L 405.850656 289.553026 
L 400.228751 286.453161 
L 394.437429 283.516701 
L 388.485888 280.748577 
L 382.383614 278.153446 
L 376.140367 275.735683 
L 369.766161 273.499369 
L 363.271249 271.448287 
L 356.666106 269.585913 
L 349.961406 267.915403 
L 343.168008 266.439596 
L 336.296933 265.161001 
L 329.359345 264.081794 
L 322.36653 263.203812 
L 315.329879 262.528552 
L 308.260861 262.057165 
L 301.171005 261.790456 
L 295.491892 261.724774 
L 295.491892 261.724774 
" clip-path="url(#pbba4876274)" style="fill: none; stroke: #008000; stroke-width: 2; stroke-linecap: square"/>
   </g>
   <g id="line2d_3">
    <path d="M 295.491892 391.436662 
L 475.321136 274.706797 
" clip-path="url(#pbba4876274)" style="fill: none; stroke-dasharray: 7.4,3.2; stroke-dashoffset: 0; stroke: #808080; stroke-width: 2"/>
   </g>
   <g id="line2d_4">
    <path d="M 475.321136 274.706797 
L 334.887787 391.436662 
" clip-path="url(#pbba4876274)" style="fill: none; stroke-dasharray: 7.4,3.2; stroke-dashoffset: 0; stroke: #a52a2a; stroke-width: 2"/>
   </g>
   <g id="line2d_5">
    <path d="M 364.338831 366.956605 
L 364.531816 367.159198 
L 364.723162 367.363116 
L 364.912858 367.568347 
L 365.100894 367.77488 
L 365.28726 367.982703 
L 365.471944 368.191804 
L 365.654939 368.402173 
L 365.836232 368.613797 
L 366.015815 368.826664 
L 366.193677 369.040763 
L 366.36981 369.256082 
L 366.544203 369.472608 
L 366.716846 369.69033 
L 366.887731 369.909235 
L 367.056849 370.129312 
L 367.224189 370.350548 
L 367.389743 370.57293 
L 367.553502 370.796447 
L 367.715456 371.021086 
L 367.875598 371.246834 
L 368.033919 371.473679 
L 368.190409 371.701608 
L 368.345061 371.930609 
L 368.497866 372.160668 
L 368.648815 372.391774 
L 368.797901 372.623913 
L 368.945115 372.857072 
L 369.09045 373.091239 
L 369.233898 373.326399 
L 369.375451 373.562541 
L 369.5151 373.799652 
L 369.65284 374.037717 
L 369.788662 374.276724 
L 369.922558 374.516659 
L 370.054523 374.75751 
L 370.184548 374.999263 
L 370.312627 375.241904 
L 370.438752 375.485419 
L 370.562918 375.729797 
L 370.685117 375.975022 
L 370.805343 376.221081 
L 370.923588 376.467961 
L 371.039848 376.715649 
L 371.154116 376.964129 
L 371.266385 377.213389 
L 371.37665 377.463414 
L 371.484905 377.714192 
L 371.591143 377.965707 
L 371.69536 378.217946 
L 371.79755 378.470896 
L 371.897707 378.724541 
L 371.995826 378.978869 
L 372.091901 379.233864 
L 372.185929 379.489514 
L 372.277903 379.745803 
L 372.367819 380.002717 
L 372.455672 380.260243 
L 372.541457 380.518366 
L 372.62517 380.777072 
L 372.706807 381.036347 
L 372.786363 381.296176 
L 372.863833 381.556544 
L 372.939215 381.817439 
L 373.012504 382.078844 
L 373.083696 382.340746 
L 373.152788 382.60313 
L 373.219775 382.865982 
L 373.284655 383.129287 
L 373.347423 383.393031 
L 373.408078 383.6572 
L 373.466615 383.921777 
L 373.523032 384.18675 
L 373.577326 384.452104 
L 373.629493 384.717823 
L 373.679532 384.983893 
L 373.72744 385.2503 
L 373.773214 385.517029 
L 373.816852 385.784065 
L 373.858352 386.051393 
L 373.897711 386.319 
L 373.934929 386.586869 
L 373.970003 386.854987 
L 374.00293 387.123338 
L 374.033711 387.391908 
L 374.062343 387.660682 
L 374.088824 387.929645 
L 374.113155 388.198783 
L 374.135332 388.468081 
L 374.155357 388.737523 
L 374.173227 389.007096 
L 374.188941 389.276784 
L 374.2025 389.546572 
L 374.213903 389.816447 
L 374.223149 390.086392 
L 374.230238 390.356393 
L 374.235169 390.626435 
L 374.237944 390.896504 
L 374.238561 391.166585 
L 374.237021 391.436662 
" clip-path="url(#pbba4876274)" style="fill: none; stroke: #ffa500; stroke-width: 1.5; stroke-linecap: square"/>
   </g>
   <g id="line2d_6">
    <path d="M 327.80814 370.459699 
L 327.946407 370.645425 
L 328.083429 370.831935 
L 328.219201 371.019223 
L 328.353717 371.207282 
L 328.486973 371.396104 
L 328.618964 371.585682 
L 328.749683 371.776009 
L 328.879128 371.967078 
L 329.007292 372.15888 
L 329.134171 372.35141 
L 329.25976 372.544658 
L 329.384055 372.738618 
L 329.507051 372.933282 
L 329.628742 373.128644 
L 329.749125 373.324694 
L 329.868195 373.521426 
L 329.985948 373.718832 
L 330.102379 373.916904 
L 330.217484 374.115636 
L 330.331258 374.315018 
L 330.443697 374.515044 
L 330.554797 374.715706 
L 330.664554 374.916995 
L 330.772964 375.118905 
L 330.880023 375.321427 
L 330.985726 375.524554 
L 331.09007 375.728278 
L 331.193051 375.932591 
L 331.294665 376.137485 
L 331.394908 376.342952 
L 331.493777 376.548985 
L 331.591267 376.755574 
L 331.687376 376.962714 
L 331.782099 377.170395 
L 331.875433 377.378609 
L 331.967375 377.587349 
L 332.057921 377.796606 
L 332.147068 378.006373 
L 332.234812 378.216641 
L 332.321151 378.427402 
L 332.406081 378.638648 
L 332.489599 378.850372 
L 332.571701 379.062564 
L 332.652386 379.275217 
L 332.731649 379.488323 
L 332.809489 379.701873 
L 332.885901 379.915859 
L 332.960884 380.130273 
L 333.034434 380.345107 
L 333.106549 380.560353 
L 333.177227 380.776001 
L 333.246464 380.992045 
L 333.314258 381.208475 
L 333.380606 381.425284 
L 333.445507 381.642463 
L 333.508958 381.860003 
L 333.570956 382.077897 
L 333.631499 382.296136 
L 333.690586 382.514711 
L 333.748213 382.733615 
L 333.804379 382.952839 
L 333.859082 383.172374 
L 333.91232 383.392213 
L 333.964091 383.612346 
L 334.014392 383.832765 
L 334.063223 384.053462 
L 334.110582 384.274428 
L 334.156466 384.495656 
L 334.200875 384.717136 
L 334.243806 384.938859 
L 334.285259 385.160819 
L 334.325231 385.383005 
L 334.363721 385.605409 
L 334.400728 385.828024 
L 334.436251 386.05084 
L 334.470288 386.27385 
L 334.502838 386.497043 
L 334.5339 386.720413 
L 334.563474 386.94395 
L 334.591557 387.167645 
L 334.61815 387.391491 
L 334.64325 387.615479 
L 334.666858 387.8396 
L 334.688973 388.063846 
L 334.709593 388.288207 
L 334.728719 388.512677 
L 334.746349 388.737245 
L 334.762483 388.961903 
L 334.777121 389.186644 
L 334.790262 389.411457 
L 334.801905 389.636336 
L 334.812051 389.86127 
L 334.820699 390.086252 
L 334.82785 390.311273 
L 334.833501 390.536324 
L 334.837655 390.761398 
L 334.84031 390.986484 
L 334.841467 391.211575 
L 334.841126 391.436662 
" clip-path="url(#pbba4876274)" style="fill: none; stroke: #808080; stroke-width: 1.5; stroke-linecap: square"/>
   </g>
   <g id="line2d_7">
    <path d="M 508.574127 253.121781 
L 508.546775 253.083679 
L 508.519373 253.04561 
L 508.491919 253.007573 
L 508.464415 252.969569 
L 508.43686 252.931598 
L 508.409254 252.89366 
L 508.381597 252.855755 
L 508.35389 252.817882 
L 508.326132 252.780043 
L 508.298323 252.742237 
L 508.270464 252.704464 
L 508.242555 252.666724 
L 508.214595 252.629018 
L 508.186584 252.591344 
L 508.158523 252.553704 
L 508.130412 252.516098 
L 508.102251 252.478525 
L 508.074039 252.440986 
L 508.045777 252.40348 
L 508.017465 252.366008 
L 507.989103 252.32857 
L 507.96069 252.291165 
L 507.932228 252.253795 
L 507.903716 252.216458 
L 507.875154 252.179155 
L 507.846541 252.141886 
L 507.817879 252.104652 
L 507.789167 252.067451 
L 507.760406 252.030285 
L 507.731594 251.993152 
L 507.702733 251.956055 
L 507.673822 251.918991 
L 507.644862 251.881962 
L 507.615852 251.844968 
L 507.586793 251.808008 
L 507.557684 251.771082 
L 507.528526 251.734192 
L 507.499318 251.697336 
L 507.470061 251.660514 
L 507.440754 251.623728 
L 507.411399 251.586976 
L 507.381994 251.55026 
L 507.35254 251.513578 
L 507.323037 251.476932 
L 507.293485 251.44032 
L 507.263884 251.403744 
L 507.234233 251.367203 
L 507.204534 251.330697 
L 507.174786 251.294226 
L 507.144989 251.257791 
L 507.115144 251.221392 
L 507.085249 251.185028 
L 507.055306 251.148699 
L 507.025314 251.112406 
L 506.995274 251.076149 
L 506.965185 251.039927 
L 506.935047 251.003742 
L 506.904861 250.967592 
L 506.874627 250.931478 
L 506.844344 250.8954 
L 506.814012 250.859358 
L 506.783633 250.823352 
L 506.753205 250.787382 
L 506.722729 250.751448 
L 506.692205 250.715551 
L 506.661632 250.679689 
L 506.631012 250.643865 
L 506.600344 250.608076 
L 506.569627 250.572324 
L 506.538863 250.536609 
L 506.508051 250.50093 
L 506.477191 250.465287 
L 506.446283 250.429682 
L 506.415327 250.394113 
L 506.384324 250.358581 
L 506.353273 250.323086 
L 506.322174 250.287627 
L 506.291028 250.252206 
L 506.259834 250.216821 
L 506.228593 250.181474 
L 506.197305 250.146164 
L 506.165969 250.110891 
L 506.134586 250.075655 
L 506.103155 250.040456 
L 506.071677 250.005295 
L 506.040153 249.970171 
L 506.00858 249.935085 
L 505.976961 249.900036 
L 505.945295 249.865024 
L 505.913582 249.83005 
L 505.881822 249.795114 
L 505.850015 249.760216 
L 505.818161 249.725355 
L 505.78626 249.690532 
L 505.754313 249.655747 
L 505.722319 249.621 
L 505.690278 249.586291 
L 505.658191 249.55162 
L 505.626057 249.516987 
" clip-path="url(#pbba4876274)" style="fill: none; stroke: #ff0000; stroke-width: 1.5; stroke-linecap: square"/>
   </g>
   <g id="Line3DCollection_1">
    <path d="M 531.587295 391.436662 
L 295.491892 391.436662 
" clip-path="url(#pbba4876274)" style="fill: none; stroke: #000000; stroke-width: 1.5"/>
    <path d="M 531.587295 391.436662 
L 531.587295 391.436662 
" clip-path="url(#pbba4876274)" style="fill: none; stroke: #000000; stroke-width: 1.5"/>
    <path d="M 531.587295 391.436662 
L 531.587295 391.436662 
" clip-path="url(#pbba4876274)" style="fill: none; stroke: #000000; stroke-width: 1.5"/>
   </g>
   <g id="Path3DCollection_1">
    <defs>
     <path id="mb4794ba23c" d="M 0 2.738613 
C 0.726289 2.738613 1.422928 2.450055 1.936492 1.936492 
C 2.450055 1.422928 2.738613 0.726289 2.738613 0 
C 2.738613 -0.726289 2.450055 -1.422928 1.936492 -1.936492 
C 1.422928 -2.450055 0.726289 -2.738613 0 -2.738613 
C -0.726289 -2.738613 -1.422928 -2.450055 -1.936492 -1.936492 
C -2.450055 -1.422928 -2.738613 -0.726289 -2.738613 0 
C -2.738613 0.726289 -2.450055 1.422928 -1.936492 1.936492 
C -1.422928 2.450055 -0.726289 2.738613 0 2.738613 
z
" style="stroke: #000000"/>
    </defs>
    <g clip-path="url(#pbba4876274)">
     <use xlink:href="#mb4794ba23c" x="475.321136" y="274.706797" style="stroke: #000000"/>
    </g>
   </g>
   <g id="Line3DCollection_2">
    <path d="M 295.491892 242.855543 
L 295.491892 391.436662 
" clip-path="url(#pbba4876274)" style="fill: none; stroke: #000000; stroke-width: 1.5"/>
    <path d="M 295.491892 242.855543 
L 295.491892 242.855543 
" clip-path="url(#pbba4876274)" style="fill: none; stroke: #000000; stroke-width: 1.5"/>
    <path d="M 295.491892 242.855543 
L 295.491892 242.855543 
" clip-path="url(#pbba4876274)" style="fill: none; stroke: #000000; stroke-width: 1.5"/>
   </g>
   <g id="Line3DCollection_3">
    <path d="M 525.266044 242.286807 
L 475.321136 274.706797 
" clip-path="url(#pbba4876274)" style="fill: none; stroke: #ff0000; stroke-width: 1.5"/>
    <path d="M 525.266044 242.286807 
L 525.266044 242.286807 
" clip-path="url(#pbba4876274)" style="fill: none; stroke: #ff0000; stroke-width: 1.5"/>
    <path d="M 525.266044 242.286807 
L 525.266044 242.286807 
" clip-path="url(#pbba4876274)" style="fill: none; stroke: #ff0000; stroke-width: 1.5"/>
   </g>
   <g id="Line3DCollection_4">
    <path d="M 520.848112 236.864235 
L 475.321136 274.706797 
" clip-path="url(#pbba4876274)" style="fill: none; stroke: #ffa500; stroke-width: 1.5"/>
    <path d="M 520.848112 236.864235 
L 520.848112 236.864235 
" clip-path="url(#pbba4876274)" style="fill: none; stroke: #ffa500; stroke-width: 1.5"/>
    <path d="M 520.848112 236.864235 
L 520.848112 236.864235 
" clip-path="url(#pbba4876274)" style="fill: none; stroke: #ffa500; stroke-width: 1.5"/>
   </g>
   <g id="Line3DCollection_5">
    <path d="M 435.975699 232.65057 
L 475.321136 274.706797 
" clip-path="url(#pbba4876274)" style="fill: none; stroke: #ffa500; stroke-width: 1.5"/>
    <path d="M 435.975699 232.65057 
L 435.975699 232.65057 
" clip-path="url(#pbba4876274)" style="fill: none; stroke: #ffa500; stroke-width: 1.5"/>
    <path d="M 435.975699 232.65057 
L 435.975699 232.65057 
" clip-path="url(#pbba4876274)" style="fill: none; stroke: #ffa500; stroke-width: 1.5"/>
   </g>
   <g id="Line3DCollection_6">
    <path d="M 441.798864 228.32812 
L 475.321136 274.706797 
" clip-path="url(#pbba4876274)" style="fill: none; stroke: #ff0000; stroke-width: 1.5"/>
    <path d="M 441.798864 228.32812 
L 441.798864 228.32812 
" clip-path="url(#pbba4876274)" style="fill: none; stroke: #ff0000; stroke-width: 1.5"/>
    <path d="M 441.798864 228.32812 
L 441.798864 228.32812 
" clip-path="url(#pbba4876274)" style="fill: none; stroke: #ff0000; stroke-width: 1.5"/>
   </g>
  </g>
 </g>
 <defs>
  <clipPath id="pbba4876274">
   <rect x="10.8" y="10.8" width="554.4" height="554.4"/>
  </clipPath>
 </defs>
</svg>
