<?xml version="1.0" encoding="utf-8" standalone="no"?>
<!DOCTYPE svg PUBLIC "-//W3C//DTD SVG 1.1//EN"
  "http://www.w3.org/Graphics/SVG/1.1/DTD/svg11.dtd">
<svg xmlns:xlink="http://www.w3.org/1999/xlink" width="576pt" height="576pt" viewBox="0 0 576 576" xmlns="http://www.w3.org/2000/svg" version="1.1">
 <metadata>
  <rdf:RDF xmlns:dc="http://purl.org/dc/elements/1.1/" xmlns:cc="http://creativecommons.org/ns#" xmlns:rdf="http://www.w3.org/1999/02/22-rdf-syntax-ns#">
   <cc:Work>
    <dc:type rdf:resource="http://purl.org/dc/dcmitype/StillImage"/>
    <dc:date>2025-05-29T12:07:37.379567</dc:date>
    <dc:format>image/svg+xml</dc:format>
    <dc:creator>
     <cc:Agent>
      <dc:title>Matplotlib v3.10.3, https://matplotlib.org/</dc:title>
     </cc:Agent>
    </dc:creator>
   </cc:Work>
  </rdf:RDF>
 </metadata>
 <defs>
  <style type="text/css">*{stroke-linejoin: round; stroke-linecap: butt}</style>
 </defs>
 <g id="figure_1">
  <g id="patch_1">
   <path d="M 0 576 
L 576 576 
L 576 0 
L 0 0 
z
" style="fill: #ffffff"/>
  </g>
  <g id="patch_2">
   <path d="M 10.8 565.2 
L 565.2 565.2 
L 565.2 10.8 
L 10.8 10.8 
z
" style="fill: #ffffff"/>
  </g>
  <g id="axes_1">
   <g id="line2d_1">
    <path d="M 295.491892 349.355782 
L 168.663084 240.137496 
" clip-path="url(#p54f90e99e1)" style="fill: none; stroke-dasharray: 7.4,3.2; stroke-dashoffset: 0; stroke: #0000ff; stroke-width: 2"/>
   </g>
   <g id="line2d_2">
    <path d="M 295.491892 349.355782 
L 422.3207 240.137496 
" clip-path="url(#p54f90e99e1)" style="fill: none; stroke-dasharray: 7.4,3.2; stroke-dashoffset: 0; stroke: #008000; stroke-width: 2"/>
   </g>
   <g id="line2d_3">
    <path d="M 295.491892 349.355782 
L 171.533947 427.4231 
" clip-path="url(#p54f90e99e1)" style="fill: none; stroke-dasharray: 7.4,3.2; stroke-dashoffset: 0; stroke: #add8e6; stroke-width: 2"/>
   </g>
   <g id="line2d_4">
    <path d="M 295.491892 349.355782 
L 419.449837 427.4231 
" clip-path="url(#p54f90e99e1)" style="fill: none; stroke-dasharray: 7.4,3.2; stroke-dashoffset: 0; stroke: #90ee90; stroke-width: 2"/>
   </g>
   <g id="line2d_5">
    <path d="M 171.533947 427.4231 
L 168.663084 240.137496 
" clip-path="url(#p54f90e99e1)" style="fill: none; stroke-dasharray: 7.4,3.2; stroke-dashoffset: 0; stroke: #0000ff; stroke-width: 2"/>
   </g>
   <g id="line2d_6">
    <path d="M 419.449837 427.4231 
L 422.3207 240.137496 
" clip-path="url(#p54f90e99e1)" style="fill: none; stroke-dasharray: 7.4,3.2; stroke-dashoffset: 0; stroke: #008000; stroke-width: 2"/>
   </g>
   <g id="line2d_7">
    <path d="M 278.982327 355.358804 
L 279.200949 355.438063 
L 279.422463 355.516265 
L 279.646831 355.593394 
L 279.874014 355.669436 
L 280.103972 355.744379 
L 280.336665 355.818208 
L 280.572051 355.89091 
L 280.810089 355.962473 
L 281.050738 356.032882 
L 281.293955 356.102126 
L 281.539697 356.170191 
L 281.787922 356.237066 
L 282.038584 356.302738 
L 282.291641 356.367196 
L 282.547048 356.430428 
L 282.804759 356.492422 
L 283.064728 356.553167 
L 283.326911 356.612652 
L 283.59126 356.670866 
L 283.857729 356.7278 
L 284.126271 356.783441 
L 284.396838 356.837782 
L 284.669382 356.89081 
L 284.943855 356.942517 
L 285.220208 356.992894 
L 285.498392 357.041931 
L 285.778359 357.08962 
L 286.060057 357.135951 
L 286.343437 357.180916 
L 286.628449 357.224508 
L 286.915042 357.266718 
L 287.203165 357.307538 
L 287.492767 357.346961 
L 287.783797 357.384981 
L 288.076201 357.421589 
L 288.36993 357.456779 
L 288.664929 357.490546 
L 288.961147 357.522882 
L 289.258531 357.553782 
L 289.557028 357.58324 
L 289.856585 357.611251 
L 290.157147 357.63781 
L 290.458663 357.662912 
L 290.761077 357.686552 
L 291.064336 357.708726 
L 291.368386 357.72943 
L 291.673172 357.74866 
L 291.97864 357.766413 
L 292.284736 357.782685 
L 292.591405 357.797474 
L 292.898592 357.810777 
L 293.206242 357.822591 
L 293.514301 357.832914 
L 293.822713 357.841745 
L 294.131423 357.849081 
L 294.440376 357.854922 
L 294.749517 357.859266 
L 295.058791 357.862112 
L 295.368142 357.86346 
L 295.677515 357.863311 
L 295.986855 357.861662 
L 296.296107 357.858517 
L 296.605215 357.853873 
L 296.914124 357.847733 
L 297.222779 357.840098 
L 297.531125 357.830969 
L 297.839106 357.820347 
L 298.146668 357.808235 
L 298.453756 357.794635 
L 298.760314 357.779549 
L 299.066289 357.762981 
L 299.371625 357.744932 
L 299.676269 357.725407 
L 299.980165 357.704408 
L 300.283259 357.681941 
L 300.585498 357.658008 
L 300.886827 357.632615 
L 301.187193 357.605765 
L 301.486541 357.577464 
L 301.78482 357.547717 
L 302.081975 357.516529 
L 302.377954 357.483907 
L 302.672703 357.449855 
L 302.966171 357.41438 
L 303.258305 357.377489 
L 303.549053 357.339189 
L 303.838363 357.299485 
L 304.126184 357.258387 
L 304.412465 357.2159 
L 304.697155 357.172033 
L 304.980203 357.126794 
L 305.261559 357.08019 
L 305.541172 357.032231 
L 305.818994 356.982926 
L 306.094975 356.932282 
L 306.369066 356.88031 
L 306.641219 356.827018 
L 306.911385 356.772417 
L 307.179516 356.716516 
" clip-path="url(#p54f90e99e1)" style="fill: none; stroke: #ff00ff; stroke-width: 1.5; stroke-linecap: square"/>
   </g>
   <g id="line2d_8">
    <path d="M 313.079147 360.432038 
L 313.079216 360.208684 
L 313.07846 359.984809 
L 313.076879 359.760424 
L 313.074474 359.53554 
L 313.071243 359.310166 
L 313.067188 359.084314 
L 313.062308 358.857995 
L 313.056604 358.631219 
L 313.050076 358.403997 
L 313.042724 358.17634 
L 313.034548 357.948259 
L 313.025549 357.719765 
L 313.015727 357.490868 
L 313.005083 357.26158 
L 312.993617 357.031911 
L 312.981329 356.801873 
L 312.96822 356.571476 
L 312.95429 356.340731 
L 312.939541 356.10965 
L 312.923973 355.878244 
L 312.907586 355.646523 
L 312.890382 355.414498 
L 312.87236 355.182182 
L 312.853523 354.949584 
L 312.83387 354.716716 
L 312.813403 354.483589 
L 312.792122 354.250214 
L 312.770029 354.016602 
L 312.747125 353.782765 
L 312.723411 353.548714 
L 312.698887 353.314459 
L 312.673555 353.080013 
L 312.647416 352.845386 
L 312.620471 352.61059 
L 312.592722 352.375635 
L 312.56417 352.140533 
L 312.534816 351.905296 
L 312.504662 351.669934 
L 312.473709 351.434459 
L 312.441958 351.198882 
L 312.409411 350.963214 
L 312.37607 350.727467 
L 312.341936 350.491652 
L 312.30701 350.25578 
L 312.271295 350.019863 
L 312.234792 349.783911 
L 312.197502 349.547937 
L 312.159429 349.31195 
L 312.120572 349.075964 
L 312.080935 348.839989 
L 312.040519 348.604035 
L 311.999326 348.368116 
L 311.957358 348.132241 
L 311.914617 347.896423 
L 311.871105 347.660672 
L 311.826824 347.425 
L 311.781777 347.189418 
L 311.735964 346.953937 
L 311.68939 346.718569 
L 311.642055 346.483325 
L 311.593962 346.248216 
L 311.545114 346.013254 
L 311.495512 345.778449 
L 311.44516 345.543813 
L 311.394059 345.309357 
L 311.342212 345.075093 
L 311.289622 344.841031 
L 311.23629 344.607183 
L 311.18222 344.373561 
L 311.127415 344.140174 
L 311.071876 343.907035 
L 311.015607 343.674154 
L 310.958609 343.441543 
L 310.900887 343.209213 
L 310.842443 342.977175 
L 310.783279 342.74544 
L 310.723398 342.514019 
L 310.662804 342.282923 
L 310.601499 342.052164 
L 310.539486 341.821752 
L 310.476768 341.591698 
L 310.413348 341.362013 
L 310.34923 341.132709 
L 310.284416 340.903796 
L 310.218909 340.675286 
L 310.152713 340.447188 
L 310.085831 340.219515 
L 310.018265 339.992276 
L 309.95002 339.765484 
L 309.881099 339.539148 
L 309.811505 339.313279 
L 309.74124 339.087889 
L 309.67031 338.862987 
L 309.598717 338.638586 
L 309.526464 338.414695 
L 309.453555 338.191325 
L 309.379994 337.968486 
L 309.305784 337.746191 
L 309.230928 337.524448 
" clip-path="url(#p54f90e99e1)" style="fill: none; stroke: #ff8c00; stroke-width: 1.5; stroke-linecap: square"/>
   </g>
   <g id="line2d_9">
    <path d="M 295.491892 327.65377 
L 295.597294 327.7198 
L 295.7027 327.787615 
L 295.8081 327.85721 
L 295.913486 327.928579 
L 296.018849 328.001716 
L 296.124181 328.076616 
L 296.229473 328.153273 
L 296.334716 328.231681 
L 296.439901 328.311833 
L 296.54502 328.393724 
L 296.650064 328.477347 
L 296.755024 328.562695 
L 296.859892 328.649761 
L 296.964658 328.738539 
L 297.069315 328.829021 
L 297.173853 328.921201 
L 297.278264 329.01507 
L 297.38254 329.110622 
L 297.486671 329.207848 
L 297.590648 329.306742 
L 297.694464 329.407294 
L 297.79811 329.509498 
L 297.901576 329.613344 
L 298.004855 329.718824 
L 298.107938 329.82593 
L 298.210816 329.934653 
L 298.313481 330.044985 
L 298.415924 330.156917 
L 298.518136 330.270439 
L 298.620109 330.385542 
L 298.721835 330.502217 
L 298.823305 330.620455 
L 298.924511 330.740246 
L 299.025444 330.861579 
L 299.126096 330.984447 
L 299.226458 331.108838 
L 299.326522 331.234742 
L 299.42628 331.362149 
L 299.525723 331.491048 
L 299.624843 331.62143 
L 299.723632 331.753284 
L 299.822081 331.886598 
L 299.920183 332.021362 
L 300.017928 332.157565 
L 300.11531 332.295195 
L 300.212319 332.434242 
L 300.308948 332.574695 
L 300.405189 332.716541 
L 300.501033 332.859768 
L 300.596472 333.004366 
L 300.691499 333.150323 
L 300.786106 333.297626 
L 300.880284 333.446263 
L 300.974026 333.596222 
L 301.067323 333.747491 
L 301.160169 333.900058 
L 301.252555 334.053909 
L 301.344473 334.209032 
L 301.435917 334.365415 
L 301.526877 334.523044 
L 301.617347 334.681907 
L 301.707319 334.84199 
L 301.796785 335.00328 
L 301.885739 335.165764 
L 301.974171 335.329428 
L 302.062076 335.49426 
L 302.149445 335.660245 
L 302.236271 335.827369 
L 302.322548 335.995619 
L 302.408267 336.164981 
L 302.493421 336.335441 
L 302.578004 336.506985 
L 302.662008 336.679598 
L 302.745427 336.853266 
L 302.828252 337.027976 
L 302.910478 337.203711 
L 302.992097 337.380459 
L 303.073103 337.558204 
L 303.153488 337.736931 
L 303.233247 337.916625 
L 303.312371 338.097273 
L 303.390855 338.278858 
L 303.468692 338.461365 
L 303.545875 338.64478 
L 303.622398 338.829087 
L 303.698254 339.014271 
L 303.773438 339.200317 
L 303.847942 339.387208 
L 303.921761 339.57493 
L 303.994888 339.763467 
L 304.067317 339.952803 
L 304.139043 340.142922 
L 304.210058 340.333809 
L 304.280357 340.525448 
L 304.349934 340.717822 
L 304.418784 340.910916 
L 304.4869 341.104713 
L 304.554277 341.299198 
L 304.620908 341.494354 
" clip-path="url(#p54f90e99e1)" style="fill: none; stroke: #0000ff; stroke-width: 1.5; stroke-linecap: square"/>
   </g>
   <g id="Line3DCollection_1">
    <path d="M 295.491892 127.016794 
L 295.491892 349.355782 
" clip-path="url(#p54f90e99e1)" style="fill: none; stroke: #000000; stroke-width: 1.5"/>
    <path d="M 295.491892 127.016794 
L 295.491892 127.016794 
" clip-path="url(#p54f90e99e1)" style="fill: none; stroke: #000000; stroke-width: 1.5"/>
    <path d="M 295.491892 127.016794 
L 295.491892 127.016794 
" clip-path="url(#p54f90e99e1)" style="fill: none; stroke: #000000; stroke-width: 1.5"/>
   </g>
   <g id="Line3DCollection_2">
    <path d="M 122.328178 412.319615 
L 295.491892 349.355782 
" clip-path="url(#p54f90e99e1)" style="fill: none; stroke: #000000; stroke-width: 1.5"/>
    <path d="M 122.328178 412.319615 
L 122.328178 412.319615 
" clip-path="url(#p54f90e99e1)" style="fill: none; stroke: #000000; stroke-width: 1.5"/>
    <path d="M 122.328178 412.319615 
L 122.328178 412.319615 
" clip-path="url(#p54f90e99e1)" style="fill: none; stroke: #000000; stroke-width: 1.5"/>
   </g>
   <g id="Line3DCollection_3">
    <path d="M 468.655605 412.319615 
L 295.491892 349.355782 
" clip-path="url(#p54f90e99e1)" style="fill: none; stroke: #000000; stroke-width: 1.5"/>
    <path d="M 468.655605 412.319615 
L 468.655605 412.319615 
" clip-path="url(#p54f90e99e1)" style="fill: none; stroke: #000000; stroke-width: 1.5"/>
    <path d="M 468.655605 412.319615 
L 468.655605 412.319615 
" clip-path="url(#p54f90e99e1)" style="fill: none; stroke: #000000; stroke-width: 1.5"/>
   </g>
   <g id="Line3DCollection_4">
    <path d="M 391.710051 249.447379 
L 422.3207 240.137496 
" clip-path="url(#p54f90e99e1)" style="fill: none; stroke: #000000"/>
    <path d="M 391.710051 249.447379 
L 391.710051 249.447379 
" clip-path="url(#p54f90e99e1)" style="fill: none; stroke: #000000"/>
    <path d="M 391.710051 249.447379 
L 391.710051 249.447379 
" clip-path="url(#p54f90e99e1)" style="fill: none; stroke: #000000"/>
   </g>
   <g id="Line3DCollection_5">
    <path d="M 180.898565 205.408102 
L 168.663084 240.137496 
" clip-path="url(#p54f90e99e1)" style="fill: none; stroke: #000000"/>
    <path d="M 180.898565 205.408102 
L 180.898565 205.408102 
" clip-path="url(#p54f90e99e1)" style="fill: none; stroke: #000000"/>
    <path d="M 180.898565 205.408102 
L 180.898565 205.408102 
" clip-path="url(#p54f90e99e1)" style="fill: none; stroke: #000000"/>
   </g>
   <g id="Path3DCollection_1">
    <defs>
     <path id="m3f4134d5e7" d="M 0 2.236068 
C 0.593012 2.236068 1.161816 2.000462 1.581139 1.581139 
C 2.000462 1.161816 2.236068 0.593012 2.236068 0 
C 2.236068 -0.593012 2.000462 -1.161816 1.581139 -1.581139 
C 1.161816 -2.000462 0.593012 -2.236068 0 -2.236068 
C -0.593012 -2.236068 -1.161816 -2.000462 -1.581139 -1.581139 
C -2.000462 -1.161816 -2.236068 -0.593012 -2.236068 0 
C -2.236068 0.593012 -2.000462 1.161816 -1.581139 1.581139 
C -1.161816 2.000462 -0.593012 2.236068 0 2.236068 
z
" style="stroke: #000000"/>
    </defs>
    <g clip-path="url(#p54f90e99e1)">
     <use xlink:href="#m3f4134d5e7" x="168.663084" y="240.137496" style="stroke: #000000"/>
    </g>
   </g>
   <g id="Line3DCollection_6">
    <path d="M 454.324283 233.908781 
L 422.3207 240.137496 
" clip-path="url(#p54f90e99e1)" style="fill: none; stroke: #000000"/>
    <path d="M 454.324283 233.908781 
L 454.324283 233.908781 
" clip-path="url(#p54f90e99e1)" style="fill: none; stroke: #000000"/>
    <path d="M 454.324283 233.908781 
L 454.324283 233.908781 
" clip-path="url(#p54f90e99e1)" style="fill: none; stroke: #000000"/>
   </g>
   <g id="Line3DCollection_7">
    <path d="M 410.085218 205.408102 
L 422.3207 240.137496 
" clip-path="url(#p54f90e99e1)" style="fill: none; stroke: #000000"/>
    <path d="M 410.085218 205.408102 
L 410.085218 205.408102 
" clip-path="url(#p54f90e99e1)" style="fill: none; stroke: #000000"/>
    <path d="M 410.085218 205.408102 
L 410.085218 205.408102 
" clip-path="url(#p54f90e99e1)" style="fill: none; stroke: #000000"/>
   </g>
   <g id="Path3DCollection_2">
    <g clip-path="url(#p54f90e99e1)">
     <use xlink:href="#m3f4134d5e7" x="422.3207" y="240.137496" style="stroke: #000000"/>
    </g>
   </g>
   <g id="Line3DCollection_8">
    <path d="M 201.050791 246.440971 
L 168.663084 240.137496 
" clip-path="url(#p54f90e99e1)" style="fill: none; stroke: #000000"/>
    <path d="M 201.050791 246.440971 
L 201.050791 246.440971 
" clip-path="url(#p54f90e99e1)" style="fill: none; stroke: #000000"/>
    <path d="M 201.050791 246.440971 
L 201.050791 246.440971 
" clip-path="url(#p54f90e99e1)" style="fill: none; stroke: #000000"/>
   </g>
   <g id="Line3DCollection_9">
    <path d="M 197.871006 230.691888 
L 168.663084 240.137496 
" clip-path="url(#p54f90e99e1)" style="fill: none; stroke: #000000"/>
    <path d="M 197.871006 230.691888 
L 197.871006 230.691888 
" clip-path="url(#p54f90e99e1)" style="fill: none; stroke: #000000"/>
    <path d="M 197.871006 230.691888 
L 197.871006 230.691888 
" clip-path="url(#p54f90e99e1)" style="fill: none; stroke: #000000"/>
   </g>
   <g id="Line3DCollection_10">
    <path d="M 152.263433 226.014981 
L 168.663084 240.137496 
" clip-path="url(#p54f90e99e1)" style="fill: none; stroke: #000000"/>
    <path d="M 152.263433 226.014981 
L 152.263433 226.014981 
" clip-path="url(#p54f90e99e1)" style="fill: none; stroke: #000000"/>
    <path d="M 152.263433 226.014981 
L 152.263433 226.014981 
" clip-path="url(#p54f90e99e1)" style="fill: none; stroke: #000000"/>
   </g>
   <g id="Line3DCollection_11">
    <path d="M 438.72035 226.014981 
L 422.3207 240.137496 
" clip-path="url(#p54f90e99e1)" style="fill: none; stroke: #000000"/>
    <path d="M 438.72035 226.014981 
L 438.72035 226.014981 
" clip-path="url(#p54f90e99e1)" style="fill: none; stroke: #000000"/>
    <path d="M 438.72035 226.014981 
L 438.72035 226.014981 
" clip-path="url(#p54f90e99e1)" style="fill: none; stroke: #000000"/>
   </g>
  </g>
 </g>
 <defs>
  <clipPath id="p54f90e99e1">
   <rect x="10.8" y="10.8" width="554.4" height="554.4"/>
  </clipPath>
 </defs>
</svg>
